<svg width="120" height="120" viewBox="0 0 120 120" fill="none" xmlns="http://www.w3.org/2000/svg">
  <!-- Background circle with gradient -->
  <circle cx="60" cy="60" r="60" fill="url(#gradient1)"/>
  
  <!-- Inner glow circle -->
  <circle cx="60" cy="60" r="50" fill="url(#gradient2)" opacity="0.8"/>
  
  <!-- Main AI symbol - stylized "A" with neural network pattern -->
  <g transform="translate(60, 60)">
    <!-- Central "A" shape -->
    <path d="M-15 20 L0 -20 L15 20 L10 20 L7 12 L-7 12 L-10 20 Z M-4 4 L4 4 L0 -8 Z" fill="white" opacity="1"/>
    
    <!-- Neural network nodes -->
    <circle cx="-20" cy="8" r="2.5" fill="white" opacity="0.9"/>
    <circle cx="20" cy="8" r="2.5" fill="white" opacity="0.9"/>
    <circle cx="-12" cy="-8" r="2" fill="white" opacity="0.8"/>
    <circle cx="12" cy="-8" r="2" fill="white" opacity="0.8"/>
    <circle cx="0" cy="-25" r="1.5" fill="white" opacity="0.7"/>
    
    <!-- Connection lines -->
    <line x1="-20" y1="8" x2="-7" y2="12" stroke="white" stroke-width="1.5" opacity="0.6"/>
    <line x1="20" y1="8" x2="7" y2="12" stroke="white" stroke-width="1.5" opacity="0.6"/>
    <line x1="-12" y1="-8" x2="0" y2="-8" stroke="white" stroke-width="1.5" opacity="0.6"/>
    <line x1="12" y1="-8" x2="0" y2="-8" stroke="white" stroke-width="1.5" opacity="0.6"/>
    <line x1="0" y1="-25" x2="0" y2="-15" stroke="white" stroke-width="1.5" opacity="0.6"/>
  </g>
  
  <!-- Online indicator with glow -->
  <circle cx="90" cy="30" r="10" fill="#10B981" opacity="0.3"/>
  <circle cx="90" cy="30" r="8" fill="#10B981"/>
  <circle cx="90" cy="30" r="5" fill="white"/>
  
  <!-- Gradients -->
  <defs>
    <linearGradient id="gradient1" x1="0%" y1="0%" x2="100%" y2="100%">
      <stop offset="0%" style="stop-color:#1E40AF;stop-opacity:1" />
      <stop offset="50%" style="stop-color:#7C3AED;stop-opacity:1" />
      <stop offset="100%" style="stop-color:#DB2777;stop-opacity:1" />
    </linearGradient>
    <linearGradient id="gradient2" x1="0%" y1="0%" x2="100%" y2="100%">
      <stop offset="0%" style="stop-color:#3B82F6;stop-opacity:1" />
      <stop offset="50%" style="stop-color:#8B5CF6;stop-opacity:1" />
      <stop offset="100%" style="stop-color:#EC4899;stop-opacity:1" />
    </linearGradient>
  </defs>
</svg>